<svg width="30" height="30" viewBox="0 0 30 30" fill="none" xmlns="http://www.w3.org/2000/svg">
<path d="M7.615 22C7.155 22 6.771 21.846 6.463 21.538C6.15433 21.2293 6 20.845 6 20.385V9.615C6 9.155 6.15433 8.771 6.463 8.463C6.771 8.15433 7.155 8 7.615 8H22.385C22.845 8 23.229 8.15433 23.537 8.463C23.8457 8.771 24 9.155 24 9.615V20.385C24 20.845 23.846 21.229 23.538 21.537C23.2293 21.8457 22.845 22 22.385 22H7.615ZM15 15.115L7 9.885V20.385C7 20.5643 7.05767 20.7117 7.173 20.827C7.28833 20.9423 7.43567 21 7.615 21H22.385C22.5643 21 22.7117 20.9423 22.827 20.827C22.9423 20.7117 23 20.5643 23 20.385V9.885L15 15.115ZM15 14L22.692 9H7.308L15 14ZM7 9.885V9V20.385C7 20.5643 7.05767 20.7117 7.173 20.827C7.28833 20.9423 7.43567 21 7.615 21H7V9.885Z" fill="black"/>
<circle cx="15" cy="15" r="14.5" stroke="black"/>
</svg>
