<svg width="30" height="30" viewBox="0 0 30 30" fill="none" xmlns="http://www.w3.org/2000/svg">
<g clip-path="url(#clip0_50_50)">
<path d="M10.654 8.32805C10.5949 8.25211 10.5204 8.1896 10.4354 8.14468C10.3503 8.09975 10.2567 8.07343 10.1607 8.06747C10.0647 8.06151 9.96853 8.07605 9.87858 8.11012C9.78863 8.14418 9.70695 8.19699 9.63898 8.26505L8.60498 9.30005C8.12198 9.78405 7.94398 10.4691 8.15498 11.0701C9.03171 13.5572 10.4561 15.8155 12.323 17.6781C14.1856 19.5449 16.4439 20.9693 18.931 21.8461C19.532 22.0571 20.217 21.8791 20.701 21.3961L21.735 20.3621C21.803 20.2941 21.8559 20.2124 21.8899 20.1225C21.924 20.0325 21.9385 19.9363 21.9326 19.8403C21.9266 19.7443 21.9003 19.6507 21.8554 19.5656C21.8104 19.4806 21.7479 19.4061 21.672 19.3471L19.365 17.5531C19.2838 17.4903 19.1894 17.4467 19.089 17.4255C18.9885 17.4044 18.8846 17.4063 18.785 17.4311L16.595 17.9781C16.3026 18.0506 15.9965 18.0465 15.7062 17.9661C15.4159 17.8857 15.1513 17.7317 14.938 17.5191L12.482 15.0621C12.2692 14.8488 12.115 14.5842 12.0344 14.294C11.9538 14.0037 11.9495 13.6975 12.022 13.4051L12.57 11.2151C12.5947 11.1154 12.5966 11.0115 12.5755 10.9111C12.5544 10.8106 12.5108 10.7163 12.448 10.6351L10.654 8.32805ZM8.88398 7.51105C9.05898 7.336 9.26921 7.20018 9.50072 7.11261C9.73223 7.02504 9.97973 6.98773 10.2268 7.00314C10.4738 7.01856 10.7147 7.08636 10.9336 7.20203C11.1524 7.3177 11.3441 7.4786 11.496 7.67405L13.29 9.98005C13.619 10.4031 13.735 10.9541 13.605 11.4741L13.058 13.6641C13.0299 13.7775 13.0315 13.8963 13.0627 14.0089C13.0939 14.1215 13.1536 14.2242 13.236 14.3071L15.693 16.7641C15.7759 16.8466 15.8788 16.9064 15.9916 16.9376C16.1044 16.9688 16.2234 16.9703 16.337 16.9421L18.526 16.3951C18.7826 16.3313 19.0504 16.3265 19.3091 16.381C19.5679 16.4356 19.8109 16.5481 20.02 16.7101L22.326 18.5041C23.155 19.1491 23.231 20.3741 22.489 21.1151L21.455 22.1491C20.715 22.8891 19.609 23.2141 18.578 22.8511C15.9387 21.9236 13.5425 20.4128 11.568 18.4311C9.58636 16.4568 8.07553 14.061 7.14798 11.4221C6.78598 10.3921 7.11098 9.28505 7.85098 8.54505L8.88398 7.51105Z" fill="black"/>
</g>
<circle cx="15" cy="15" r="14.5" stroke="black"/>
<defs>
<clipPath id="clip0_50_50">
<rect width="16" height="16" fill="white" transform="translate(7 7)"/>
</clipPath>
</defs>
</svg>
