<svg width="24" height="24" viewBox="0 0 24 24" fill="none" xmlns="http://www.w3.org/2000/svg">
<g clip-path="url(#clip0_348_32)">
<path d="M20 2H8C6.9 2 6 2.9 6 4V16C6 17.1 6.9 18 8 18H20C21.1 18 22 17.1 22 16V4C22 2.9 21.1 2 20 2ZM18 7H15V12.5C15 13.88 13.88 15 12.5 15C11.12 15 10 13.88 10 12.5C10 11.12 11.12 10 12.5 10C13.07 10 13.58 10.19 14 10.51V5H18V7ZM4 6H2V20C2 21.1 2.9 22 4 22H18V20H4V6Z" fill="white"/>
<line x1="22.3536" y1="2.35355" x2="1.35355" y2="23.3536" stroke="white"/>
</g>
<defs>
<clipPath id="clip0_348_32">
<rect width="24" height="24" fill="white"/>
</clipPath>
</defs>
</svg>
