<svg width="50" height="50" viewBox="0 0 50 50" fill="none" xmlns="http://www.w3.org/2000/svg">
<g clip-path="url(#clip0_35_432)">
<mask id="mask0_35_432" style="mask-type:alpha" maskUnits="userSpaceOnUse" x="4" y="4" width="42" height="42">
<path d="M20.4729 45.3396L29.8125 29.1667L37.1708 41.9104C33.6283 44.4673 29.3689 45.8403 25 45.8333C23.4458 45.8333 21.9312 45.6625 20.4729 45.3396ZM16.4375 44C13.7608 42.7898 11.3695 41.0288 9.41949 38.8318C7.46951 36.6349 6.00475 34.0514 5.12083 31.25H23.7979L16.4375 43.9979V44ZM4.27083 27.0833C3.9727 24.161 4.29821 21.2086 5.22585 18.4213C6.15349 15.6341 7.66214 13.0755 9.65208 10.9146L18.9833 27.0833H4.27083ZM12.8312 8.0896C16.3732 5.5331 20.6318 4.1602 25 4.16668C26.5542 4.16668 28.0687 4.33751 29.5271 4.66043L20.1875 20.8333L12.8312 8.0896ZM33.5625 6.00001C36.2392 7.21019 38.6305 8.97123 40.5805 11.1682C42.5305 13.3651 43.9952 15.9486 44.8792 18.75H26.2021L33.5625 6.0021V6.00001ZM45.7292 22.9167C46.0273 25.8391 45.7018 28.7915 44.7741 31.5787C43.8465 34.3659 42.3379 36.9246 40.3479 39.0854L31.0167 22.9167H45.7333H45.7292Z" fill="black"/>
</mask>
<g mask="url(#mask0_35_432)">
<rect x="1" y="2" width="52" height="50" fill="url(#paint0_linear_35_432)"/>
</g>
</g>
<defs>
<linearGradient id="paint0_linear_35_432" x1="13" y1="8" x2="34" y2="43.5" gradientUnits="userSpaceOnUse">
<stop stop-color="#27AE60"/>
<stop offset="0.520833" stop-color="#56CCF2"/>
<stop offset="1" stop-color="#9B51E0"/>
</linearGradient>
<clipPath id="clip0_35_432">
<rect width="50" height="50" fill="white"/>
</clipPath>
</defs>
</svg>
